<svg width="128" height="40" viewBox="0 0 128 40" fill="none" xmlns="http://www.w3.org/2000/svg">
<circle cx="20" cy="20" r="20" fill="#5D87FF"/>
<path d="M0 19H40" stroke="#121212" stroke-width="5"/>
<path d="M62.66 32.36C61.06 32.36 59.58 32.07 58.22 31.49C56.88 30.91 55.7 30.1 54.68 29.06C53.68 28.02 52.9 26.8 52.34 25.4C51.78 24 51.5 22.47 51.5 20.81C51.5 19.15 51.77 17.62 52.31 16.22C52.87 14.8 53.65 13.58 54.65 12.56C55.67 11.52 56.86 10.72 58.22 10.16C59.58 9.58 61.06 9.29 62.66 9.29C64.26 9.29 65.69 9.56 66.95 10.1C68.23 10.64 69.31 11.36 70.19 12.26C71.07 13.14 71.7 14.11 72.08 15.17L68.42 16.88C68 15.76 67.29 14.84 66.29 14.12C65.29 13.38 64.08 13.01 62.66 13.01C61.26 13.01 60.02 13.34 58.94 14C57.88 14.66 57.05 15.57 56.45 16.73C55.87 17.89 55.58 19.25 55.58 20.81C55.58 22.37 55.87 23.74 56.45 24.92C57.05 26.08 57.88 26.99 58.94 27.65C60.02 28.31 61.26 28.64 62.66 28.64C64.08 28.64 65.29 28.28 66.29 27.56C67.29 26.82 68 25.89 68.42 24.77L72.08 26.48C71.7 27.54 71.07 28.52 70.19 29.42C69.31 30.3 68.23 31.01 66.95 31.55C65.69 32.09 64.26 32.36 62.66 32.36ZM75.0624 32V9.29H78.9924V18.89L78.4524 18.32C78.8324 17.34 79.4524 16.6 80.3124 16.1C81.1924 15.58 82.2124 15.32 83.3724 15.32C84.5724 15.32 85.6324 15.58 86.5524 16.1C87.4924 16.62 88.2224 17.35 88.7424 18.29C89.2624 19.21 89.5224 20.28 89.5224 21.5V32H85.5924V22.43C85.5924 21.71 85.4524 21.09 85.1724 20.57C84.8924 20.05 84.5024 19.65 84.0024 19.37C83.5224 19.07 82.9524 18.92 82.2924 18.92C81.6524 18.92 81.0824 19.07 80.5824 19.37C80.0824 19.65 79.6924 20.05 79.4124 20.57C79.1324 21.09 78.9924 21.71 78.9924 22.43V32H75.0624ZM97.7956 32.36C96.6556 32.36 95.6656 32.17 94.8256 31.79C93.9856 31.41 93.3356 30.87 92.8756 30.17C92.4156 29.45 92.1856 28.62 92.1856 27.68C92.1856 26.78 92.3856 25.98 92.7856 25.28C93.1856 24.56 93.8056 23.96 94.6456 23.48C95.4856 23 96.5456 22.66 97.8256 22.46L103.166 21.59V24.59L98.5756 25.37C97.7956 25.51 97.2156 25.76 96.8356 26.12C96.4556 26.48 96.2656 26.95 96.2656 27.53C96.2656 28.09 96.4756 28.54 96.8956 28.88C97.3356 29.2 97.8756 29.36 98.5156 29.36C99.3356 29.36 100.056 29.19 100.676 28.85C101.316 28.49 101.806 28 102.146 27.38C102.506 26.76 102.686 26.08 102.686 25.34V21.14C102.686 20.44 102.406 19.86 101.846 19.4C101.306 18.92 100.586 18.68 99.6856 18.68C98.8456 18.68 98.0956 18.91 97.4356 19.37C96.7956 19.81 96.3256 20.4 96.0256 21.14L92.8156 19.58C93.1356 18.72 93.6356 17.98 94.3156 17.36C95.0156 16.72 95.8356 16.22 96.7756 15.86C97.7156 15.5 98.7356 15.32 99.8356 15.32C101.176 15.32 102.356 15.57 103.376 16.07C104.396 16.55 105.186 17.23 105.746 18.11C106.326 18.97 106.616 19.98 106.616 21.14V32H102.896V29.21L103.736 29.15C103.316 29.85 102.816 30.44 102.236 30.92C101.656 31.38 100.996 31.74 100.256 32C99.5156 32.24 98.6956 32.36 97.7956 32.36ZM110.248 32V15.68H113.938V19.31L113.638 18.77C114.018 17.55 114.608 16.7 115.408 16.22C116.228 15.74 117.208 15.5 118.348 15.5H119.308V18.98H117.898C116.778 18.98 115.878 19.33 115.198 20.03C114.518 20.71 114.178 21.67 114.178 22.91V32H110.248ZM121.469 32V15.68H125.399V32H121.469ZM121.469 13.85V9.65H125.399V13.85H121.469Z" fill="white"/>
</svg>
